<mxfile host="app.diagrams.net" agent="Mozilla/5.0 (Windows NT 10.0; Win64; x64) AppleWebKit/537.36 (KHTML, like Gecko) Chrome/134.0.0.0 Safari/537.36 OPR/119.0.0.0" version="27.1.6">
  <diagram name="Page-1" id="zgze0guZaHjY4eYRLfh0">
    <mxGraphModel dx="2878" dy="1098" grid="1" gridSize="10" guides="1" tooltips="1" connect="1" arrows="1" fold="1" page="1" pageScale="1" pageWidth="850" pageHeight="1100" math="0" shadow="0">
      <root>
        <mxCell id="0" />
        <mxCell id="1" parent="0" />
        <mxCell id="GHqjzyI0OoO71bV5xPVD-72" value="&lt;font face=&quot;Times New Roman&quot;&gt;Analysis&lt;/font&gt;" style="rounded=1;whiteSpace=wrap;html=1;fillColor=#f5f5f5;fontColor=#333333;strokeColor=#666666;" parent="1" vertex="1">
          <mxGeometry x="40" y="120" width="120" height="60" as="geometry" />
        </mxCell>
        <mxCell id="GHqjzyI0OoO71bV5xPVD-86" value="" style="edgeStyle=orthogonalEdgeStyle;rounded=0;orthogonalLoop=1;jettySize=auto;html=1;" parent="1" source="GHqjzyI0OoO71bV5xPVD-73" target="GHqjzyI0OoO71bV5xPVD-72" edge="1">
          <mxGeometry relative="1" as="geometry" />
        </mxCell>
        <mxCell id="GHqjzyI0OoO71bV5xPVD-73" value="&lt;font face=&quot;Times New Roman&quot;&gt;Dataset&lt;/font&gt;&lt;div&gt;&lt;font face=&quot;Times New Roman&quot;&gt;&lt;br&gt;&lt;/font&gt;&lt;/div&gt;&lt;div&gt;&lt;font face=&quot;Times New Roman&quot;&gt;&lt;br&gt;&lt;/font&gt;&lt;/div&gt;" style="rounded=1;whiteSpace=wrap;html=1;fillColor=#e1d5e7;strokeColor=#9673a6;" parent="1" vertex="1">
          <mxGeometry x="40" y="200" width="120" height="60" as="geometry" />
        </mxCell>
        <mxCell id="GHqjzyI0OoO71bV5xPVD-85" value="" style="edgeStyle=orthogonalEdgeStyle;rounded=0;orthogonalLoop=1;jettySize=auto;html=1;" parent="1" source="GHqjzyI0OoO71bV5xPVD-74" target="GHqjzyI0OoO71bV5xPVD-73" edge="1">
          <mxGeometry relative="1" as="geometry" />
        </mxCell>
        <mxCell id="GHqjzyI0OoO71bV5xPVD-74" value="&lt;font face=&quot;Times New Roman&quot;&gt;Subject&lt;/font&gt;&lt;div&gt;&lt;font face=&quot;Times New Roman&quot;&gt;&lt;br&gt;&lt;/font&gt;&lt;/div&gt;&lt;div&gt;&lt;font face=&quot;Times New Roman&quot;&gt;&lt;br&gt;&lt;/font&gt;&lt;/div&gt;" style="rounded=1;whiteSpace=wrap;html=1;fillColor=#e1d5e7;strokeColor=#9673a6;" parent="1" vertex="1">
          <mxGeometry x="40" y="280" width="120" height="60" as="geometry" />
        </mxCell>
        <mxCell id="GHqjzyI0OoO71bV5xPVD-84" value="" style="edgeStyle=orthogonalEdgeStyle;rounded=0;orthogonalLoop=1;jettySize=auto;html=1;" parent="1" source="GHqjzyI0OoO71bV5xPVD-75" target="GHqjzyI0OoO71bV5xPVD-74" edge="1">
          <mxGeometry relative="1" as="geometry" />
        </mxCell>
        <mxCell id="GHqjzyI0OoO71bV5xPVD-75" value="&lt;font face=&quot;Times New Roman&quot;&gt;Session&lt;/font&gt;&lt;div&gt;&lt;font face=&quot;Times New Roman&quot;&gt;&lt;br&gt;&lt;/font&gt;&lt;/div&gt;&lt;div&gt;&lt;font face=&quot;Times New Roman&quot;&gt;&lt;br&gt;&lt;/font&gt;&lt;/div&gt;" style="rounded=1;whiteSpace=wrap;html=1;fillColor=#e1d5e7;strokeColor=#9673a6;" parent="1" vertex="1">
          <mxGeometry x="40" y="360" width="120" height="60" as="geometry" />
        </mxCell>
        <mxCell id="GHqjzyI0OoO71bV5xPVD-83" value="" style="edgeStyle=orthogonalEdgeStyle;rounded=0;orthogonalLoop=1;jettySize=auto;html=1;" parent="1" source="GHqjzyI0OoO71bV5xPVD-76" target="GHqjzyI0OoO71bV5xPVD-75" edge="1">
          <mxGeometry relative="1" as="geometry" />
        </mxCell>
        <mxCell id="GHqjzyI0OoO71bV5xPVD-76" value="&lt;font face=&quot;Times New Roman&quot;&gt;Task&lt;/font&gt;&lt;div&gt;&lt;font face=&quot;Times New Roman&quot;&gt;&lt;br&gt;&lt;/font&gt;&lt;/div&gt;&lt;div&gt;&lt;font face=&quot;Times New Roman&quot;&gt;&lt;br&gt;&lt;/font&gt;&lt;/div&gt;" style="rounded=1;whiteSpace=wrap;html=1;fillColor=#d5e8d4;strokeColor=#82b366;" parent="1" vertex="1">
          <mxGeometry x="40" y="440" width="120" height="60" as="geometry" />
        </mxCell>
        <mxCell id="GHqjzyI0OoO71bV5xPVD-82" style="edgeStyle=orthogonalEdgeStyle;rounded=0;orthogonalLoop=1;jettySize=auto;html=1;entryX=0.5;entryY=1;entryDx=0;entryDy=0;" parent="1" source="GHqjzyI0OoO71bV5xPVD-77" target="GHqjzyI0OoO71bV5xPVD-76" edge="1">
          <mxGeometry relative="1" as="geometry">
            <mxPoint x="100" y="520" as="targetPoint" />
          </mxGeometry>
        </mxCell>
        <mxCell id="GHqjzyI0OoO71bV5xPVD-77" value="&lt;font face=&quot;Times New Roman&quot;&gt;State&lt;/font&gt;&lt;div&gt;&lt;font face=&quot;Times New Roman&quot;&gt;&lt;br&gt;&lt;/font&gt;&lt;/div&gt;&lt;div&gt;&lt;font face=&quot;Times New Roman&quot;&gt;&lt;br&gt;&lt;/font&gt;&lt;/div&gt;" style="rounded=1;whiteSpace=wrap;html=1;fillColor=#d5e8d4;strokeColor=#82b366;" parent="1" vertex="1">
          <mxGeometry x="40" y="520" width="120" height="60" as="geometry" />
        </mxCell>
        <mxCell id="GHqjzyI0OoO71bV5xPVD-81" value="" style="edgeStyle=orthogonalEdgeStyle;rounded=0;orthogonalLoop=1;jettySize=auto;html=1;" parent="1" source="GHqjzyI0OoO71bV5xPVD-78" target="GHqjzyI0OoO71bV5xPVD-77" edge="1">
          <mxGeometry relative="1" as="geometry" />
        </mxCell>
        <mxCell id="GHqjzyI0OoO71bV5xPVD-78" value="&lt;font face=&quot;Times New Roman&quot;&gt;Channel&lt;/font&gt;&lt;div&gt;&lt;font face=&quot;Times New Roman&quot;&gt;&lt;br&gt;&lt;/font&gt;&lt;/div&gt;&lt;div&gt;&lt;font face=&quot;Times New Roman&quot;&gt;&lt;br&gt;&lt;/font&gt;&lt;/div&gt;" style="rounded=1;whiteSpace=wrap;html=1;fillColor=#ffe6cc;strokeColor=#d79b00;" parent="1" vertex="1">
          <mxGeometry x="40" y="600" width="120" height="60" as="geometry" />
        </mxCell>
        <mxCell id="GHqjzyI0OoO71bV5xPVD-80" value="" style="edgeStyle=orthogonalEdgeStyle;rounded=0;orthogonalLoop=1;jettySize=auto;html=1;" parent="1" source="GHqjzyI0OoO71bV5xPVD-79" target="GHqjzyI0OoO71bV5xPVD-78" edge="1">
          <mxGeometry relative="1" as="geometry" />
        </mxCell>
        <mxCell id="GHqjzyI0OoO71bV5xPVD-79" value="&lt;font face=&quot;Times New Roman&quot;&gt;Epoch&lt;/font&gt;&lt;div&gt;&lt;font face=&quot;Times New Roman&quot;&gt;&lt;br&gt;&lt;/font&gt;&lt;/div&gt;&lt;div&gt;&lt;font face=&quot;Times New Roman&quot;&gt;&lt;br&gt;&lt;/font&gt;&lt;/div&gt;" style="rounded=1;whiteSpace=wrap;html=1;fillColor=#dae8fc;strokeColor=#6c8ebf;" parent="1" vertex="1">
          <mxGeometry x="40" y="680" width="120" height="60" as="geometry" />
        </mxCell>
        <mxCell id="GHqjzyI0OoO71bV5xPVD-89" value="&lt;font face=&quot;Times New Roman&quot; style=&quot;font-size: 10px;&quot;&gt;- Task Orientation*&lt;/font&gt;" style="text;html=1;align=left;verticalAlign=middle;resizable=0;points=[];autosize=1;strokeColor=none;fillColor=none;" parent="1" vertex="1">
          <mxGeometry x="50" y="215" width="100" height="30" as="geometry" />
        </mxCell>
        <mxCell id="GHqjzyI0OoO71bV5xPVD-90" value="&lt;font face=&quot;Times New Roman&quot; style=&quot;font-size: 10px;&quot;&gt;- ID&lt;/font&gt;" style="text;html=1;align=left;verticalAlign=middle;resizable=0;points=[];autosize=1;strokeColor=none;fillColor=none;" parent="1" vertex="1">
          <mxGeometry x="50" y="295" width="40" height="30" as="geometry" />
        </mxCell>
        <mxCell id="GHqjzyI0OoO71bV5xPVD-91" value="&lt;font face=&quot;Times New Roman&quot; style=&quot;font-size: 10px;&quot;&gt;- Group&lt;/font&gt;" style="text;html=1;align=left;verticalAlign=middle;resizable=0;points=[];autosize=1;strokeColor=none;fillColor=none;" parent="1" vertex="1">
          <mxGeometry x="50" y="310" width="50" height="30" as="geometry" />
        </mxCell>
        <mxCell id="GHqjzyI0OoO71bV5xPVD-92" value="&lt;font face=&quot;Times New Roman&quot; style=&quot;font-size: 10px;&quot;&gt;- ID&lt;/font&gt;" style="text;html=1;align=left;verticalAlign=middle;resizable=0;points=[];autosize=1;strokeColor=none;fillColor=none;" parent="1" vertex="1">
          <mxGeometry x="50" y="375" width="40" height="30" as="geometry" />
        </mxCell>
        <mxCell id="GHqjzyI0OoO71bV5xPVD-93" value="&lt;font face=&quot;Times New Roman&quot; style=&quot;font-size: 10px;&quot;&gt;- Task Orientation&lt;/font&gt;" style="text;html=1;align=left;verticalAlign=middle;resizable=0;points=[];autosize=1;strokeColor=none;fillColor=none;" parent="1" vertex="1">
          <mxGeometry x="50" y="455" width="100" height="30" as="geometry" />
        </mxCell>
        <mxCell id="GHqjzyI0OoO71bV5xPVD-94" value="&lt;font face=&quot;Times New Roman&quot; style=&quot;font-size: 10px;&quot;&gt;- Cognitive Demand&lt;/font&gt;" style="text;html=1;align=left;verticalAlign=middle;resizable=0;points=[];autosize=1;strokeColor=none;fillColor=none;" parent="1" vertex="1">
          <mxGeometry x="50" y="470" width="110" height="30" as="geometry" />
        </mxCell>
        <mxCell id="GHqjzyI0OoO71bV5xPVD-96" value="&lt;font face=&quot;Times New Roman&quot; style=&quot;font-size: 10px;&quot;&gt;- Binary Labeling&lt;/font&gt;" style="text;html=1;align=left;verticalAlign=middle;resizable=0;points=[];autosize=1;strokeColor=none;fillColor=none;" parent="1" vertex="1">
          <mxGeometry x="50" y="535" width="90" height="30" as="geometry" />
        </mxCell>
        <mxCell id="GHqjzyI0OoO71bV5xPVD-97" value="&lt;font face=&quot;Times New Roman&quot; style=&quot;font-size: 10px;&quot;&gt;- Cortical Region&lt;/font&gt;" style="text;html=1;align=left;verticalAlign=middle;resizable=0;points=[];autosize=1;strokeColor=none;fillColor=none;" parent="1" vertex="1">
          <mxGeometry x="50" y="615" width="90" height="30" as="geometry" />
        </mxCell>
        <mxCell id="GHqjzyI0OoO71bV5xPVD-98" value="&lt;font face=&quot;Times New Roman&quot; style=&quot;font-size: 10px;&quot;&gt;- Hemisphere&lt;/font&gt;" style="text;html=1;align=left;verticalAlign=middle;resizable=0;points=[];autosize=1;strokeColor=none;fillColor=none;" parent="1" vertex="1">
          <mxGeometry x="50" y="630" width="80" height="30" as="geometry" />
        </mxCell>
        <mxCell id="GHqjzyI0OoO71bV5xPVD-99" value="&lt;font face=&quot;Times New Roman&quot; style=&quot;font-size: 10px;&quot;&gt;- Length&lt;/font&gt;" style="text;html=1;align=left;verticalAlign=middle;resizable=0;points=[];autosize=1;strokeColor=none;fillColor=none;" parent="1" vertex="1">
          <mxGeometry x="50" y="695" width="60" height="30" as="geometry" />
        </mxCell>
        <mxCell id="GHqjzyI0OoO71bV5xPVD-100" value="&lt;font face=&quot;Times New Roman&quot; style=&quot;font-size: 10px;&quot;&gt;- Onset Time&lt;/font&gt;" style="text;html=1;align=left;verticalAlign=middle;resizable=0;points=[];autosize=1;strokeColor=none;fillColor=none;" parent="1" vertex="1">
          <mxGeometry x="50" y="710" width="80" height="30" as="geometry" />
        </mxCell>
        <mxCell id="0FOU8LfuGUJkgL9hwP8a-1" value="&lt;h1 style=&quot;text-align: left; text-wrap-mode: wrap; margin-top: 0px;&quot;&gt;&lt;font style=&quot;font-size: 17px;&quot; face=&quot;Times New Roman&quot;&gt;Categories&lt;/font&gt;&lt;/h1&gt;" style="text;html=1;align=center;verticalAlign=middle;resizable=0;points=[];autosize=1;strokeColor=none;fillColor=none;" vertex="1" parent="1">
          <mxGeometry x="50" y="20" width="100" height="60" as="geometry" />
        </mxCell>
        <mxCell id="0FOU8LfuGUJkgL9hwP8a-2" value="&lt;span style=&quot;font-family: &amp;quot;Times New Roman&amp;quot;; text-wrap-mode: wrap; background-color: rgb(181, 115, 157);&quot;&gt;Identifier&lt;/span&gt;&lt;br style=&quot;font-family: &amp;quot;Times New Roman&amp;quot;; text-wrap-mode: wrap;&quot;&gt;&lt;span style=&quot;font-family: &amp;quot;Times New Roman&amp;quot;; text-wrap-mode: wrap; background-color: rgb(185, 224, 165);&quot;&gt;Condition&lt;/span&gt;&lt;br style=&quot;font-family: &amp;quot;Times New Roman&amp;quot;; text-wrap-mode: wrap;&quot;&gt;&lt;span style=&quot;font-family: &amp;quot;Times New Roman&amp;quot;; text-wrap-mode: wrap; background-color: rgb(255, 217, 102);&quot;&gt;Spatial&lt;/span&gt;&lt;br style=&quot;font-family: &amp;quot;Times New Roman&amp;quot;; text-wrap-mode: wrap;&quot;&gt;&lt;div style=&quot;&quot;&gt;&lt;span style=&quot;background-color: light-dark(rgb(126, 166, 224), rgb(67, 102, 151)); font-family: &amp;quot;Times New Roman&amp;quot;; text-wrap-mode: wrap; color: light-dark(rgb(0, 0, 0), rgb(255, 255, 255));&quot;&gt;Temproal&lt;/span&gt;&lt;/div&gt;" style="text;html=1;align=left;verticalAlign=middle;resizable=0;points=[];autosize=1;strokeColor=none;fillColor=none;" vertex="1" parent="1">
          <mxGeometry x="75" y="50" width="70" height="70" as="geometry" />
        </mxCell>
      </root>
    </mxGraphModel>
  </diagram>
</mxfile>
